<svg width="64" height="64" xmlns="http://www.w3.org/2000/svg">

 <g>
  <title>background</title>
  <rect fill="none" id="canvas_background" height="402" width="582" y="-1" x="-1"/>
 </g>
 <g>
  <title>Layer 1</title>
  <path fill="#ffffff" id="Fill-38" d="m32,55.899994c-13.200001,0 -23.9,-10.699997 -23.9,-23.900009c0,-13.199997 10.699999,-23.900009 23.9,-23.900009s23.900002,10.700012 23.900002,23.900009c0,13.200012 -10.700001,23.900009 -23.900002,23.900009l0,0zm0,-45.199982c-11.700001,0 -21.299999,9.600006 -21.299999,21.300003s9.599998,21.299988 21.299999,21.299988s21.299999,-9.599991 21.299999,-21.299988s-9.599998,-21.300003 -21.299999,-21.300003l0,0z" class="st0"/>
  <polygon fill="#ffffff" points="19.300000190734863,30.600006103515625 44.70000076293945,30.600006103515625 44.70000076293945,33.399993896484375 19.300000190734863,33.399993896484375 " id="Fill-39" class="st0"/>
  <polygon fill="#ffffff" points="30.59999990463257,19.29998779296875 33.40000009536743,19.29998779296875 33.40000009536743,44.69999694824219 30.59999990463257,44.69999694824219 " id="Fill-40" class="st0"/>
 </g>
</svg>