<svg 
 xmlns="http://www.w3.org/2000/svg"
 xmlns:xlink="http://www.w3.org/1999/xlink"
 width="2.293cm" height="2.258cm">
<path fill-rule="evenodd"  fill="rgb(200, 83, 90)"
 d="M55.750,12.500 C55.750,14.570 54.070,16.250 52.000,16.250 C49.930,16.250 48.250,14.570 48.250,12.500 C48.250,10.430 49.930,8.750 52.000,8.750 C54.070,8.750 55.750,10.430 55.750,12.500 ZM64.500,1.250 C64.500,0.547 63.875,-0.000 63.172,-0.000 C49.578,-0.000 42.117,3.125 32.351,12.851 C30.125,15.117 27.820,17.695 25.477,20.469 L10.672,21.250 C10.281,21.289 9.891,21.523 9.656,21.875 L0.906,36.875 C0.633,37.344 0.711,37.969 1.101,38.398 L3.602,40.898 C3.836,41.133 4.187,41.250 4.500,41.250 C4.617,41.250 4.734,41.250 4.852,41.211 L15.633,37.890 L26.609,48.867 L23.289,59.648 C23.172,60.078 23.289,60.547 23.602,60.898 L26.101,63.398 C26.375,63.633 26.687,63.750 27.000,63.750 C27.234,63.750 27.430,63.711 27.625,63.594 L42.625,54.844 C42.977,54.609 43.211,54.219 43.250,53.828 L44.031,39.023 C46.805,36.679 49.383,34.375 51.648,32.148 C60.906,22.852 64.500,14.219 64.500,1.250 Z"/>
</svg>