<svg 
 xmlns="http://www.w3.org/2000/svg"
 xmlns:xlink="http://www.w3.org/1999/xlink"
 width="2.293cm" height="2.293cm">
<path fill-rule="evenodd"  fill="rgb(200, 83, 90)"
 d="M46.385,23.537 L42.205,19.357 L53.650,7.912 L57.830,12.092 L46.385,23.537 ZM63.845,12.092 C63.845,11.427 63.611,10.803 63.142,10.334 L55.408,2.599 C54.939,2.131 54.314,1.896 53.650,1.896 C52.986,1.896 52.361,2.131 51.892,2.599 L1.658,52.834 C1.189,53.303 0.955,53.928 0.955,54.592 C0.955,55.256 1.189,55.881 1.658,56.349 L9.392,64.084 C9.861,64.553 10.486,64.787 11.150,64.787 C11.814,64.787 12.439,64.553 12.908,64.084 L63.142,13.850 C63.611,13.381 63.845,12.756 63.845,12.092 ZM11.072,4.670 L9.900,0.842 L8.728,4.670 L4.900,5.841 L8.728,7.014 L9.900,10.842 L11.072,7.014 L14.900,5.841 L11.072,4.670 ZM24.744,10.998 L22.400,3.342 L20.056,10.998 L12.400,13.342 L20.056,15.685 L22.400,23.342 L24.744,15.685 L32.400,13.342 L24.744,10.998 ZM61.072,29.670 L59.900,25.842 L58.728,29.670 L54.900,30.842 L58.728,32.013 L59.900,35.842 L61.072,32.013 L64.900,30.842 L61.072,29.670 ZM36.072,4.670 L34.900,0.842 L33.728,4.670 L29.900,5.841 L33.728,7.014 L34.900,10.842 L36.072,7.014 L39.900,5.841 L36.072,4.670 Z"/>
</svg>