<svg 
 xmlns="http://www.w3.org/2000/svg"
 xmlns:xlink="http://www.w3.org/1999/xlink"
 width="1.623cm" height="2.434cm">
<path fill-rule="evenodd"  fill="rgb(223, 92, 100)"
 d="M32.860,20.138 C32.860,15.183 27.012,12.995 22.859,12.995 C22.100,12.995 21.431,13.665 21.431,14.423 C21.431,15.183 22.100,15.852 22.859,15.852 C25.226,15.852 30.003,17.058 30.003,20.138 C30.003,20.897 30.673,21.567 31.432,21.567 C32.191,21.567 32.860,20.897 32.860,20.138 ZM40.004,20.138 C40.004,22.996 38.843,25.987 36.968,28.175 C36.120,29.157 35.137,30.095 34.244,31.122 C31.074,34.917 28.396,39.381 27.949,44.427 L17.770,44.427 C17.323,39.381 14.644,34.917 11.474,31.122 C10.581,30.095 9.599,29.157 8.751,28.175 C6.876,25.987 5.715,22.996 5.715,20.138 C5.715,11.209 14.778,5.851 22.859,5.851 C30.941,5.851 40.004,11.209 40.004,20.138 ZM45.719,20.138 C45.719,7.995 34.155,0.137 22.859,0.137 C11.564,0.137 -0.000,7.995 -0.000,20.138 C-0.000,24.737 1.518,28.711 4.599,32.104 C7.679,35.497 11.742,40.274 12.099,45.052 C10.805,45.811 10.001,47.239 10.001,48.712 C10.001,49.784 10.403,50.811 11.117,51.570 C10.403,52.329 10.001,53.356 10.001,54.427 C10.001,55.901 10.760,57.240 12.010,58.044 C11.653,58.669 11.430,59.428 11.430,60.142 C11.430,63.044 13.707,64.428 16.296,64.428 C17.457,67.018 20.047,68.715 22.859,68.715 C25.672,68.715 28.262,67.018 29.422,64.428 C32.012,64.428 34.289,63.044 34.289,60.142 C34.289,59.428 34.066,58.669 33.709,58.044 C34.959,57.240 35.718,55.901 35.718,54.427 C35.718,53.356 35.316,52.329 34.602,51.570 C35.316,50.811 35.718,49.784 35.718,48.712 C35.718,47.239 34.914,45.811 33.619,45.052 C33.977,40.274 38.039,35.497 41.120,32.104 C44.201,28.711 45.719,24.737 45.719,20.138 Z"/>
</svg>