<svg 
 xmlns="http://www.w3.org/2000/svg"
 xmlns:xlink="http://www.w3.org/1999/xlink"
 width="2.681cm" height="2.469cm">
<path fill-rule="evenodd"  fill="rgb(200, 83, 90)"
 d="M35.747,35.061 C35.747,40.569 31.255,45.062 25.747,45.062 C20.239,45.062 15.747,40.569 15.747,35.061 C15.747,29.554 20.239,25.062 25.747,25.062 C31.255,25.062 35.747,29.554 35.747,35.061 ZM65.747,55.061 C65.747,57.796 63.520,60.062 60.747,60.062 C58.013,60.062 55.747,57.835 55.747,55.061 C55.747,52.327 58.013,50.062 60.747,50.062 C63.481,50.062 65.747,52.327 65.747,55.061 ZM65.747,15.061 C65.747,17.796 63.520,20.061 60.747,20.061 C58.013,20.061 55.747,17.835 55.747,15.061 C55.747,12.327 58.013,10.062 60.747,10.062 C63.481,10.062 65.747,12.327 65.747,15.061 ZM50.747,31.507 C50.747,30.960 50.356,30.452 49.810,30.335 L43.872,29.436 C43.520,28.343 43.052,27.288 42.544,26.233 C43.638,24.710 44.809,23.304 45.942,21.780 C46.099,21.546 46.216,21.312 46.216,21.038 C46.216,19.944 41.606,15.726 40.591,14.788 C40.356,14.593 40.083,14.476 39.770,14.476 C39.497,14.476 39.224,14.554 38.989,14.749 L34.380,18.226 C33.442,17.757 32.466,17.327 31.450,17.015 L30.552,11.038 C30.474,10.491 29.927,10.062 29.380,10.062 L22.114,10.062 C21.567,10.062 21.099,10.452 20.942,10.999 C20.435,12.913 20.239,15.061 20.044,17.015 C18.989,17.366 18.013,17.757 17.036,18.265 L12.544,14.749 C12.310,14.593 12.036,14.476 11.724,14.476 C10.591,14.476 6.216,19.202 5.435,20.257 C5.239,20.491 5.161,20.765 5.161,21.038 C5.161,21.312 5.278,21.585 5.435,21.819 C6.685,23.304 7.856,24.749 8.950,26.312 C8.442,27.288 8.013,28.265 7.700,29.280 L1.645,30.218 C1.138,30.296 0.747,30.882 0.747,31.390 L0.747,38.616 C0.747,39.163 1.138,39.671 1.685,39.749 L7.622,40.687 C7.974,41.780 8.442,42.835 8.989,43.890 C7.856,45.413 6.685,46.859 5.552,48.343 C5.395,48.577 5.278,48.812 5.278,49.085 C5.278,50.218 9.888,54.397 10.903,55.335 C11.138,55.530 11.411,55.647 11.724,55.647 C11.997,55.647 12.310,55.569 12.505,55.374 L17.114,51.898 C18.052,52.366 19.028,52.796 20.044,53.108 L20.942,59.085 C21.020,59.632 21.567,60.062 22.114,60.062 L29.380,60.062 C29.927,60.062 30.395,59.671 30.552,59.124 C31.060,57.210 31.255,55.061 31.450,53.069 C32.505,52.757 33.481,52.366 34.458,51.858 L38.950,55.374 C39.185,55.530 39.458,55.647 39.770,55.647 C40.903,55.647 45.278,50.882 46.060,49.827 C46.255,49.632 46.333,49.358 46.333,49.085 C46.333,48.772 46.216,48.538 46.060,48.304 C44.809,46.819 43.638,45.374 42.544,43.812 C43.052,42.835 43.481,41.858 43.794,40.843 L49.849,39.905 C50.356,39.827 50.747,39.241 50.747,38.734 L50.747,31.507 ZM75.747,52.327 C75.747,51.741 70.708,51.194 69.927,51.116 C69.614,50.413 69.224,49.710 68.755,49.085 C69.106,48.304 70.747,44.397 70.747,43.694 C70.747,43.616 70.708,43.499 70.591,43.421 C70.122,43.147 65.942,40.687 65.747,40.687 L65.513,40.765 C64.185,42.093 63.013,43.616 61.919,45.140 C61.528,45.101 61.138,45.062 60.747,45.062 C60.356,45.062 59.966,45.101 59.575,45.140 C59.185,44.554 56.255,40.687 55.747,40.687 C55.552,40.687 51.372,43.186 50.903,43.421 C50.786,43.499 50.747,43.616 50.747,43.694 C50.747,44.358 52.388,48.304 52.739,49.085 C52.270,49.710 51.880,50.413 51.567,51.116 C50.786,51.194 45.747,51.741 45.747,52.327 L45.747,57.796 C45.747,58.382 50.786,58.929 51.567,59.007 C51.880,59.749 52.270,60.413 52.739,61.038 C52.388,61.820 50.747,65.765 50.747,66.429 C50.747,66.507 50.786,66.624 50.903,66.702 C51.372,66.975 55.552,69.476 55.747,69.476 C56.255,69.476 59.185,65.569 59.575,64.983 C59.966,65.022 60.356,65.062 60.747,65.062 C61.138,65.062 61.528,65.022 61.919,64.983 C62.310,65.569 65.239,69.476 65.747,69.476 C65.942,69.476 70.122,66.975 70.591,66.702 C70.708,66.624 70.747,66.546 70.747,66.429 C70.747,65.725 69.106,61.820 68.755,61.038 C69.224,60.413 69.614,59.749 69.927,59.007 C70.708,58.929 75.747,58.382 75.747,57.796 L75.747,52.327 ZM75.747,12.327 C75.747,11.741 70.708,11.194 69.927,11.116 C69.614,10.413 69.224,9.710 68.755,9.085 C69.106,8.304 70.747,4.397 70.747,3.694 C70.747,3.616 70.708,3.499 70.591,3.421 C70.122,3.147 65.942,0.687 65.747,0.687 L65.513,0.765 C64.185,2.093 63.013,3.616 61.919,5.140 C61.528,5.101 61.138,5.062 60.747,5.062 C60.356,5.062 59.966,5.101 59.575,5.140 C59.185,4.554 56.255,0.687 55.747,0.687 C55.552,0.687 51.372,3.187 50.903,3.421 C50.786,3.499 50.747,3.616 50.747,3.694 C50.747,4.358 52.388,8.304 52.739,9.085 C52.270,9.710 51.880,10.413 51.567,11.116 C50.786,11.194 45.747,11.741 45.747,12.327 L45.747,17.796 C45.747,18.382 50.786,18.929 51.567,19.007 C51.880,19.749 52.270,20.413 52.739,21.038 C52.388,21.819 50.747,25.765 50.747,26.429 C50.747,26.507 50.786,26.624 50.903,26.702 C51.372,26.976 55.552,29.475 55.747,29.475 C56.255,29.475 59.185,25.570 59.575,24.983 C59.966,25.023 60.356,25.062 60.747,25.062 C61.138,25.062 61.528,25.023 61.919,24.983 C62.310,25.570 65.239,29.475 65.747,29.475 C65.942,29.475 70.122,26.976 70.591,26.702 C70.708,26.624 70.747,26.546 70.747,26.429 C70.747,25.726 69.106,21.819 68.755,21.038 C69.224,20.413 69.614,19.749 69.927,19.007 C70.708,18.929 75.747,18.382 75.747,17.796 L75.747,12.327 Z"/>
</svg>