<svg 
 xmlns="http://www.w3.org/2000/svg"
 xmlns:xlink="http://www.w3.org/1999/xlink"
 width="0.494cm" height="0.494cm">
<path fill-rule="evenodd"  fill="rgb(255, 255, 255)"
 d="M3.115,4.868 L0.170,4.868 L0.170,13.714 L3.115,13.714 L3.115,4.868 ZM3.303,2.136 C3.294,1.271 2.669,0.610 1.660,0.610 C0.660,0.610 -0.000,1.271 -0.000,2.136 C-0.000,2.984 0.634,3.663 1.625,3.663 L1.642,3.663 L1.642,3.663 C2.669,3.663 3.312,2.984 3.303,2.136 ZM13.711,8.644 C13.711,5.930 12.265,4.662 10.328,4.662 C8.739,4.662 8.043,5.546 7.659,6.153 L7.677,6.153 L7.677,4.868 L4.740,4.868 C4.740,4.868 4.776,5.698 4.740,13.714 L4.740,13.714 L7.677,13.714 L7.677,8.777 C7.677,8.510 7.703,8.251 7.775,8.054 C7.989,7.528 8.471,6.983 9.283,6.983 C10.346,6.983 10.774,7.796 10.774,8.983 L10.774,13.714 L13.711,13.714 L13.711,8.644 Z"/>
</svg>