<svg 
 xmlns="http://www.w3.org/2000/svg"
 xmlns:xlink="http://www.w3.org/1999/xlink"
 width="0.529cm" height="0.423cm">
<path fill-rule="evenodd"  fill="rgb(255, 255, 255)"
 d="M14.461,1.931 C13.943,2.154 13.381,2.314 12.800,2.377 C13.398,2.020 13.854,1.458 14.068,0.788 C13.515,1.118 12.890,1.359 12.238,1.484 C11.711,0.922 10.962,0.574 10.131,0.574 C8.534,0.574 7.248,1.868 7.248,3.457 C7.248,3.680 7.275,3.903 7.320,4.118 C4.927,3.993 2.794,2.850 1.375,1.100 C1.125,1.529 0.982,2.020 0.982,2.555 C0.982,3.555 1.491,4.439 2.267,4.957 C1.794,4.939 1.348,4.805 0.964,4.590 C0.964,4.600 0.964,4.618 0.964,4.626 C0.964,6.028 1.955,7.188 3.276,7.456 C3.035,7.519 2.776,7.555 2.517,7.555 C2.330,7.555 2.151,7.536 1.973,7.510 C2.339,8.652 3.401,9.483 4.668,9.509 C3.678,10.286 2.437,10.741 1.089,10.741 C0.848,10.741 0.625,10.732 0.393,10.706 C1.669,11.527 3.187,12.000 4.820,12.000 C10.123,12.000 13.024,7.608 13.024,3.797 C13.024,3.671 13.024,3.546 13.015,3.421 C13.577,3.011 14.068,2.502 14.461,1.931 Z"/>
</svg>