<svg 
 xmlns="http://www.w3.org/2000/svg"
 xmlns:xlink="http://www.w3.org/1999/xlink"
 width="0.529cm" height="0.564cm">
<path fill-rule="evenodd"  fill="rgb(255, 255, 255)"
 d="M7.819,12.366 C7.819,13.928 6.338,14.464 5.008,14.464 C3.579,14.464 1.651,13.803 1.651,12.089 C1.651,10.233 3.829,9.768 5.293,9.768 C5.445,9.768 5.588,9.768 5.740,9.786 C6.650,10.420 7.819,11.116 7.819,12.366 ZM6.748,4.671 C6.748,5.761 6.329,6.644 5.106,6.644 C3.517,6.644 2.624,4.520 2.624,3.163 C2.624,2.110 3.196,1.074 4.365,1.074 C6.016,1.074 6.748,3.314 6.748,4.671 ZM5.579,0.431 C5.017,0.431 4.454,0.494 3.910,0.610 C2.285,0.967 0.973,2.413 0.973,4.109 C0.973,5.903 2.473,7.180 4.204,7.180 C4.410,7.180 4.615,7.162 4.829,7.135 C4.740,7.412 4.633,7.608 4.633,7.903 C4.633,8.402 4.909,8.849 5.204,9.233 C3.606,9.278 1.125,9.688 0.330,11.295 C0.143,11.670 -0.000,12.080 -0.000,12.500 C-0.000,14.571 2.410,15.285 4.079,15.285 C5.400,15.285 6.802,14.999 7.828,14.116 C8.587,13.455 9.078,12.625 9.078,11.598 C9.078,9.099 6.400,8.644 6.400,7.492 C6.400,6.314 8.400,6.136 8.400,3.770 C8.400,2.770 7.953,1.690 7.070,1.136 L8.275,1.136 L9.480,0.431 L5.579,0.431 ZM14.853,2.717 L12.568,2.717 L12.568,0.431 L11.426,0.431 L11.426,2.717 L9.141,2.717 L9.141,3.859 L11.426,3.859 L11.426,6.144 L12.568,6.144 L12.568,3.859 L14.853,3.859 L14.853,2.717 Z"/>
</svg>