<svg 
 xmlns="http://www.w3.org/2000/svg"
 xmlns:xlink="http://www.w3.org/1999/xlink"
 width="5.539cm" height="5.644cm">
<path fill-rule="evenodd"  fill="rgb(255, 92, 100)"
 d="M71.886,2.412 C66.428,2.412 67.268,4.859 64.329,5.281 C61.390,5.700 64.924,4.096 56.107,5.779 C47.291,7.465 44.177,18.832 43.757,23.044 C43.338,27.253 43.233,39.090 43.512,45.406 C44.352,49.195 41.413,49.195 41.413,49.195 C36.130,48.854 38.506,65.364 38.506,65.364 C39.265,69.433 38.232,71.460 46.055,74.611 C49.781,85.256 59.515,90.886 59.515,90.886 C59.515,90.886 59.564,97.455 59.711,102.318 C58.915,101.919 62.429,114.743 38.130,118.342 C13.830,121.935 9.177,129.830 4.596,134.223 C0.015,138.620 0.193,159.924 0.193,159.924 L157.015,160.008 C157.015,160.008 155.851,138.620 151.269,134.223 C146.688,129.830 141.698,121.935 117.399,118.342 C93.775,114.913 97.660,102.270 97.492,101.512 C97.536,99.596 97.792,91.472 97.792,91.472 C97.792,91.472 106.041,84.941 109.767,74.295 C115.630,70.583 117.864,70.065 118.833,65.786 C118.833,65.786 120.558,49.106 115.022,49.191 C115.022,49.191 112.397,50.038 113.238,46.247 C114.077,42.457 113.797,30.622 113.377,26.412 C112.957,22.201 113.590,10.166 104.774,8.482 C98.756,7.358 97.971,8.470 95.032,8.049 C92.094,7.628 88.595,-0.007 83.137,-0.007 L71.886,2.412 Z"/>
</svg>